<?xml version="1.0" encoding="UTF-8"?>
<!DOCTYPE svg PUBLIC "-//W3C//DTD SVG 1.1//EN" "http://www.w3.org/Graphics/SVG/1.1/DTD/svg11.dtd">
<svg xmlns="http://www.w3.org/2000/svg" version="1.1" width="456px" height="459px" style="shape-rendering:geometricPrecision; text-rendering:geometricPrecision; image-rendering:optimizeQuality; fill-rule:evenodd; clip-rule:evenodd" xmlns:xlink="http://www.w3.org/1999/xlink">
<g><path style="opacity:1" fill="#0654a3" d="M 241.5,101.5 C 239.31,104.688 236.976,107.855 234.5,111C 232.5,111.667 230.5,111.667 228.5,111C 230.363,108.882 231.03,106.716 230.5,104.5C 237.266,89.7048 241.266,74.2048 242.5,58C 243.676,45.3255 238.343,36.9922 226.5,33C 211.105,31.5452 196.439,34.2119 182.5,41C 119.483,71.017 70.9828,116.517 37,177.5C 29.5206,192.065 26.854,207.398 29,223.5C 31.5134,232.347 37.3468,237.181 46.5,238C 65.1426,238.009 82.6426,233.509 99,224.5C 100.23,225.275 100.563,226.275 100,227.5C 86.6952,240.571 70.8619,249.071 52.5,253C 32.5991,254.969 18.0991,247.136 9,229.5C 2.51155,213.445 0.178212,196.778 2,179.5C 10.8499,115.265 42.6833,66.0983 97.5,32C 127.449,14.4064 159.783,4.57304 194.5,2.5C 213.551,2.00578 230.551,7.50578 245.5,19C 256.843,31.3475 261.009,45.8475 258,62.5C 255.294,76.8146 249.794,89.8146 241.5,101.5 Z"/></g>
<g><path style="opacity:1" fill="#3a7672" d="M 196.5,21.5 C 199.102,20.3389 201.769,19.1723 204.5,18C 195.477,17.3194 186.477,17.4861 177.5,18.5C 178.263,17.7321 179.263,17.2321 180.5,17C 190.517,16.1678 200.517,16.3344 210.5,17.5C 206.14,19.7581 201.473,21.0914 196.5,21.5 Z"/></g>
<g><path style="opacity:1" fill="#9eca27" d="M 196.5,21.5 C 183.082,25.367 170.082,30.5337 157.5,37C 121.629,57.9549 89.9627,84.1216 62.5,115.5C 60.4131,116.585 59.0798,118.251 58.5,120.5C 39.4612,140.917 25.7945,164.584 17.5,191.5C 16.8826,191.611 16.3826,191.944 16,192.5C 15.4758,182.385 16.3092,172.385 18.5,162.5C 28.445,120.122 50.445,85.2889 84.5,58C 111.909,36.6355 142.909,23.4688 177.5,18.5C 186.477,17.4861 195.477,17.3194 204.5,18C 201.769,19.1723 199.102,20.3389 196.5,21.5 Z"/></g>
<g><path style="opacity:1" fill="#a1cd1f" d="M 183.5,348.5 C 182.262,347.588 180.928,347.421 179.5,348C 159.662,358.753 139.662,369.253 119.5,379.5C 117.476,357.74 110.976,337.406 100,318.5C 90.4959,304.006 77.3292,294.506 60.5,290C 59.1667,289 59.1667,288 60.5,287C 69.8333,282.333 79.1667,277.667 88.5,273C 96.5006,269.466 104.834,268.132 113.5,269C 118.124,270.31 122.124,272.644 125.5,276C 131.937,283.048 137.771,290.548 143,298.5C 144.194,299.43 145.527,300.097 147,300.5C 212.699,273.257 273.199,237.757 328.5,194C 371.857,159.28 412.857,121.78 451.5,81.5C 452.614,82.723 452.781,84.0563 452,85.5C 423.183,145.236 384.017,197.403 334.5,242C 315.077,258.76 295.077,274.76 274.5,290C 244.781,310.522 214.448,330.022 183.5,348.5 Z"/></g>
<g><path style="opacity:1" fill="#024293" d="M 346.5,105.5 C 349.641,106.321 352.975,106.821 356.5,107C 343.504,107.5 330.504,107.667 317.5,107.5C 317.874,129.691 317.207,151.691 315.5,173.5C 315.333,151.497 315.5,129.497 316,107.5C 316.5,107 317,106.5 317.5,106C 327.161,105.5 336.828,105.334 346.5,105.5 Z"/></g>
<g><path style="opacity:1" fill="#0156ad" d="M 162.5,105.5 C 168.842,105.334 175.175,105.5 181.5,106C 182,106.5 182.5,107 183,107.5C 183.667,163.5 183.667,219.5 183,275.5C 171.671,282.046 159.838,287.212 147.5,291C 140.466,279.422 131.299,269.922 120,262.5C 119.501,257.511 119.334,252.511 119.5,247.5C 120.222,247.918 120.722,248.584 121,249.5C 121.5,202.168 121.667,154.835 121.5,107.5C 134.171,107.667 146.838,107.5 159.5,107C 160.737,106.768 161.737,106.268 162.5,105.5 Z"/></g>
<g><path style="opacity:1" fill="#053f92" d="M 241.5,101.5 C 234.546,114.394 225.879,126.061 215.5,136.5C 214.386,135.277 214.219,133.944 215,132.5C 220.97,123.555 226.137,114.222 230.5,104.5C 231.03,106.716 230.363,108.882 228.5,111C 230.5,111.667 232.5,111.667 234.5,111C 236.976,107.855 239.31,104.688 241.5,101.5 Z"/></g>
<g><path style="opacity:1" fill="#377273" d="M 62.5,115.5 C 61.9202,117.749 60.5869,119.415 58.5,120.5C 59.0798,118.251 60.4131,116.585 62.5,115.5 Z"/></g>
<g><path style="opacity:1" fill="#0b549d" d="M 346.5,105.5 C 357.415,105.18 368.248,105.513 379,106.5C 379.667,117.833 379.667,129.167 379,140.5C 360.098,158.4 340.264,175.233 319.5,191C 318.216,191.684 317.049,191.517 316,190.5C 315.501,184.843 315.334,179.176 315.5,173.5C 317.207,151.691 317.874,129.691 317.5,107.5C 330.504,107.667 343.504,107.5 356.5,107C 352.975,106.821 349.641,106.321 346.5,105.5 Z"/></g>
<g><path style="opacity:1" fill="#0057ae" d="M 324.5,108.5 C 341.465,109.037 358.465,109.037 375.5,108.5C 374.855,112.171 374.521,115.838 374.5,119.5C 378.384,127.209 376.717,133.376 369.5,138C 370.26,139.441 370.926,140.941 371.5,142.5C 367.763,147.897 363.43,152.564 358.5,156.5C 357.808,155.975 357.308,155.308 357,154.5C 355.666,157.589 353.499,159.922 350.5,161.5C 349.614,162.325 349.281,163.325 349.5,164.5C 346.243,164.764 344.243,166.43 343.5,169.5C 338.69,171.082 334.69,173.915 331.5,178C 328.066,180.435 324.4,182.435 320.5,184C 319.773,185.399 319.273,186.899 319,188.5C 318.635,165.768 318.468,142.935 318.5,120C 319.114,117.146 319.781,114.313 320.5,111.5C 320.291,110.914 319.957,110.414 319.5,110C 321.382,109.802 323.048,109.302 324.5,108.5 Z"/></g>
<g><path style="opacity:1" fill="#024397" d="M 162.5,105.5 C 161.737,106.268 160.737,106.768 159.5,107C 146.838,107.5 134.171,107.667 121.5,107.5C 121.667,154.835 121.5,202.168 121,249.5C 120.722,248.584 120.222,247.918 119.5,247.5C 119.333,200.832 119.5,154.165 120,107.5C 120.5,107 121,106.5 121.5,106C 135.163,105.5 148.829,105.333 162.5,105.5 Z"/></g>
<g><path style="opacity:1" fill="#3b7981" d="M 18.5,162.5 C 16.3092,172.385 15.4758,182.385 16,192.5C 16.3826,191.944 16.8826,191.611 17.5,191.5C 17.3718,193.09 16.7051,194.423 15.5,195.5C 14.2013,186.807 14.368,178.14 16,169.5C 16.3903,166.896 17.2237,164.562 18.5,162.5 Z"/></g>
<g><path style="opacity:1" fill="#0056ae" d="M 376.5,443.5 C 376.108,445.179 375.608,446.846 375,448.5C 372.929,449.103 371.762,450.436 371.5,452.5C 363.08,455.215 354.413,456.548 345.5,456.5C 345.918,455.778 346.584,455.278 347.5,455C 339.678,454.502 332.011,453.169 324.5,451C 321.789,449.739 319.622,447.906 318,445.5C 317.667,399.5 317.333,353.5 317,307.5C 316.817,310.365 316.317,313.031 315.5,315.5C 315.03,299.404 315.53,283.404 317,267.5C 335.993,251.339 354.16,234.339 371.5,216.5C 372.93,216.579 374.264,216.246 375.5,215.5C 376.208,218.366 376.875,221.2 377.5,224C 376.671,254.762 376.171,285.595 376,316.5C 375.147,318.125 374.147,318.458 373,317.5C 373.233,313.739 372.066,310.239 369.5,307C 371.891,305.691 371.891,304.691 369.5,304C 372.167,302.667 372.167,301.333 369.5,300C 369.833,299.667 370.167,299.333 370.5,299C 367.858,298.437 367.191,296.937 368.5,294.5C 367.725,292.525 366.391,291.691 364.5,292C 364.833,292.333 365.167,292.667 365.5,293C 363.086,295.82 360.586,295.987 358,293.5C 355.765,294.896 354.598,296.896 354.5,299.5C 351.675,299.162 349.508,300.162 348,302.5C 347.586,302.043 347.086,301.709 346.5,301.5C 345.422,304.408 343.755,306.908 341.5,309C 341.966,310.299 341.966,311.799 341.5,313.5C 339.94,313.519 338.44,313.852 337,314.5C 335.989,314.108 335.489,313.441 335.5,312.5C 330.74,314.249 329.74,317.083 332.5,321C 331.919,321.893 331.585,322.893 331.5,324C 332.093,327.151 332.593,330.318 333,333.5C 333.667,334.167 334.333,334.833 335,335.5C 336.667,334.167 338.333,334.167 340,335.5C 340.739,333.779 341.573,332.113 342.5,330.5C 342.338,332.631 343.671,333.631 346.5,333.5C 346.5,334.833 346.5,336.167 346.5,337.5C 353.145,338.209 353.812,337.042 348.5,334C 350.814,332.602 353.147,332.435 355.5,333.5C 356.358,329.839 354.692,328.005 350.5,328C 351.641,327.259 351.641,326.425 350.5,325.5C 352.459,324.252 353.959,322.585 355,320.5C 356.385,321.551 357.385,322.884 358,324.5C 358.667,323.833 359.333,323.167 360,322.5C 359.901,325.566 359.734,328.566 359.5,331.5C 360.5,331.5 361.5,331.5 362.5,331.5C 362.45,329.41 363.45,328.077 365.5,327.5C 365.165,328.664 365.165,329.997 365.5,331.5C 369.531,335.494 372.198,334.994 373.5,330C 372.102,328.351 372.436,327.018 374.5,326C 373.396,324.869 373.729,324.035 375.5,323.5C 376.5,363.494 376.833,403.494 376.5,443.5 Z"/></g>
<g><path style="opacity:1" fill="#0048a0" d="M 379.5,225.5 C 379.667,298.834 379.5,372.167 379,445.5C 377.285,448.717 374.785,451.05 371.5,452.5C 371.762,450.436 372.929,449.103 375,448.5C 375.608,446.846 376.108,445.179 376.5,443.5C 376.834,370.661 377.834,297.994 379.5,225.5 Z"/></g>
<g><path style="opacity:1" fill="#015cae" d="M 379.5,225.5 C 377.834,297.994 376.834,370.661 376.5,443.5C 376.833,403.494 376.5,363.494 375.5,323.5C 373.729,324.035 373.396,324.869 374.5,326C 372.436,327.018 372.102,328.351 373.5,330C 372.198,334.994 369.531,335.494 365.5,331.5C 365.165,329.997 365.165,328.664 365.5,327.5C 363.45,328.077 362.45,329.41 362.5,331.5C 361.5,331.5 360.5,331.5 359.5,331.5C 359.734,328.566 359.901,325.566 360,322.5C 359.333,323.167 358.667,323.833 358,324.5C 357.385,322.884 356.385,321.551 355,320.5C 353.959,322.585 352.459,324.252 350.5,325.5C 351.641,326.425 351.641,327.259 350.5,328C 354.692,328.005 356.358,329.839 355.5,333.5C 353.147,332.435 350.814,332.602 348.5,334C 353.812,337.042 353.145,338.209 346.5,337.5C 346.5,336.167 346.5,334.833 346.5,333.5C 343.671,333.631 342.338,332.631 342.5,330.5C 341.573,332.113 340.739,333.779 340,335.5C 338.333,334.167 336.667,334.167 335,335.5C 334.333,334.833 333.667,334.167 333,333.5C 332.593,330.318 332.093,327.151 331.5,324C 331.585,322.893 331.919,321.893 332.5,321C 329.74,317.083 330.74,314.249 335.5,312.5C 335.489,313.441 335.989,314.108 337,314.5C 338.44,313.852 339.94,313.519 341.5,313.5C 341.966,311.799 341.966,310.299 341.5,309C 343.755,306.908 345.422,304.408 346.5,301.5C 347.086,301.709 347.586,302.043 348,302.5C 349.508,300.162 351.675,299.162 354.5,299.5C 354.598,296.896 355.765,294.896 358,293.5C 360.586,295.987 363.086,295.82 365.5,293C 365.167,292.667 364.833,292.333 364.5,292C 366.391,291.691 367.725,292.525 368.5,294.5C 367.191,296.937 367.858,298.437 370.5,299C 370.167,299.333 369.833,299.667 369.5,300C 372.167,301.333 372.167,302.667 369.5,304C 371.891,304.691 371.891,305.691 369.5,307C 372.066,310.239 373.233,313.739 373,317.5C 374.147,318.458 375.147,318.125 376,316.5C 376.171,285.595 376.671,254.762 377.5,224C 376.875,221.2 376.208,218.366 375.5,215.5C 374.264,216.246 372.93,216.579 371.5,216.5C 373.344,213.313 376.011,211.313 379.5,210.5C 379.5,215.5 379.5,220.5 379.5,225.5 Z"/></g>
<g><path style="opacity:1" fill="#073f97" d="M 345.5,456.5 C 336.275,456.527 327.609,454.36 319.5,450C 317.959,448.421 316.792,446.587 316,444.5C 315.5,401.501 315.333,358.501 315.5,315.5C 316.317,313.031 316.817,310.365 317,307.5C 317.333,353.5 317.667,399.5 318,445.5C 319.622,447.906 321.789,449.739 324.5,451C 332.011,453.169 339.678,454.502 347.5,455C 346.584,455.278 345.918,455.778 345.5,456.5 Z"/></g>
<g><path style="opacity:1" fill="#0356ac" d="M 183.5,348.5 C 183.898,381.187 183.398,413.854 182,446.5C 178.003,451.253 172.837,454.086 166.5,455C 156.5,455.667 146.5,455.667 136.5,455C 130.444,454.211 125.277,451.711 121,447.5C 119.521,424.924 119.021,402.257 119.5,379.5C 139.662,369.253 159.662,358.753 179.5,348C 180.928,347.421 182.262,347.588 183.5,348.5 Z"/></g>
</svg>
